<?xml version="1.0" encoding="utf-8"?>
<!-- Generator: Adobe Illustrator 22.0.1, SVG Export Plug-In . SVG Version: 6.00 Build 0)  -->
<svg version="1.1" id="Layer_1" xmlns="http://www.w3.org/2000/svg" xmlns:xlink="http://www.w3.org/1999/xlink" x="0px" y="0px"
	 viewBox="0 0 1080 1080" style="enable-background:new 0 0 1080 1080;" xml:space="preserve">
<style type="text/css">
	.st0{fill:#FFFFFF;}
</style>
<g>
	<g>
		<polygon points="1013.2,388.1 1004.9,427.2 954.8,427.2 939.8,497.7 976.4,497.7 967.2,541 930.7,541 914.3,618.3 964.4,618.3 
			956.7,654.6 868.3,654.6 876,618.3 916.5,427.2 924.7,388.1 		"/>
		<polygon points="917.6,388.1 909.4,427.2 868.9,618.3 861.2,654.6 825.5,654.6 825.4,652.9 823.3,618.3 815.9,499.9 790.9,618.3 
			783.2,654.6 747.1,654.6 754.8,618.3 795.3,427.2 803.5,388.1 838.5,388.1 838.8,392.3 841.1,427.2 848.7,543.2 873.3,427.2 
			881.5,388.1 		"/>
		<path d="M546.5,634.5l-4.3,20h-92.6l7.7-36.2l40.5-191.1l4.4-20.7l-9.8,20.7L439.2,540v0l-16.6,78.3l-7.7,36.2h-38.6l24.2-114.1
			l-5.2-113.2l-1.8-39h36.8l0.3,9.9l1,29.1l1.7,51.2l23.2-51.2l12-26.5l5.7-12.5h70.7l-8.3,39l-40.5,191.1h47.2
			C543.8,624,544.7,629.5,546.5,634.5z"/>
		<path d="M682.6,427.2c-0.1,6.2-1,12.8-2.5,19.9l-6.7,31.7h-36.1l7.7-36.4c0.1-0.3,0.1-0.6,0.2-1c1-5,1.2-10.5-0.8-14.2
			c-1.5-2.6-4.1-4.3-8.4-4.3c-5,0-8.7,1.6-11.6,4.3c-3.4,3.2-5.5,8-6.7,13.5l-34,160.5c-1.4,6.8-0.8,14,3.7,17.1
			c1.5,1.1,3.4,1.7,5.9,1.7c2.9,0,5.4-0.6,7.5-1.7c5.2-2.6,8.5-8.4,10.6-17.1c0,0,0,0,0,0l7.8-36.8h36.1l-8.5,40
			c-1,4.7-2.5,9.4-4.4,13.9c-7.1,16.5-20.3,30.5-40.1,36.2l-2.4,0.6l0,0c-5.5,1.4-11.6,2.2-18.1,2.2c-3.6,0-6.9-0.3-9.9-0.9
			c-2.4-0.5-4.6-1.1-6.6-1.9c-9.8-3.8-15.7-11.1-18.9-20c-1.8-5-2.7-10.5-3-16.2c-0.3-6.9,0.4-14.1,1.7-20.7
			c0.1-0.4,0.2-0.7,0.2-1.1L578.2,442c0-0.1,0-0.2,0.1-0.3c1.1-5.1,2.5-9.9,4.4-14.5c3-7.7,7.1-14.6,12.2-20.5c0,0,0,0,0,0
			c7.3-8.6,16.7-15,28-18.5c2.1-0.6,4.2-1.2,6.3-1.6c4.8-1,9.8-1.5,15.2-1.5c4.6,0,8.8,0.5,12.5,1.4c1.9,0.5,3.7,1,5.3,1.7
			C676.7,394.1,683,408.2,682.6,427.2z"/>
		<path d="M765.2,388.1c-2.2-0.9-4.5-1.5-7.1-2.1c-3.5-0.7-7.4-1.1-11.7-1.1c-5.1,0-9.8,0.5-14.2,1.5c-2,0.4-4,1-5.8,1.6
			c-19.3,6.5-31.3,22.2-38.2,39c-2.4,5.8-4.1,11.7-5.4,17.4l-33.7,158.8c-1.1,5.2-1.7,10.2-1.7,14.9c-0.2,17.1,6.5,30.6,21.1,36.2
			c2,0.8,4.2,1.4,6.5,1.8c3.1,0.6,6.5,0.9,10.2,0.9c5.4,0,10.7-0.5,15.7-1.6c1.7-0.3,3.4-0.8,5-1.2c17.3-5,31.8-16.7,40.5-36.2
			c2.5-5.5,4.5-11.7,6-18.5c0-0.2,0.1-0.3,0.1-0.5c0-0.1,0-0.2,0.1-0.3l30.8-145.1c0-0.1,0-0.1,0-0.2c2-9.3,3.1-18.3,3.1-26.6
			C786.5,408.9,780.7,394.3,765.2,388.1z M745.4,445.7c-0.1,0.5-0.2,0.9-0.3,1.4l-32.7,154.1c-0.1,0.4-0.2,0.7-0.2,1.1
			c-1.7,7.8-4,13.4-8.8,16c-2,1.1-4.4,1.7-7.4,1.7c-2.7,0-4.8-0.6-6.3-1.7c-4.4-3.1-4.4-10.7-2-22.5c0.1-0.3,0.1-0.7,0.2-1
			l32.1-151.4c1.6-7.6,4.2-13,7.7-16.3c3.1-2.9,6.9-4.3,11.6-4.3c3.7,0,5.7,1.6,6.8,4.3C747.9,431.5,746.9,438.5,745.4,445.7z"/>
	</g>
</g>
<g>
	<g>
		<g>
			<rect x="457.8" y="690.2" width="48.3" height="5.6"/>
		</g>
		<g>
			<rect x="479.2" y="693.4" width="5.6" height="56.8"/>
		</g>
		<g>
			<path d="M576.2,751.7c-14,0-23.1-8.9-23.1-22.7v-38.4h5.6V729c0,10.7,6.5,17.2,17.5,17.2c13.3,0,18-8.1,18-15.8v-39.8h5.6v39.8
				C599.8,741,592.5,751.7,576.2,751.7z"/>
		</g>
		<g>
			<path d="M672.2,690h-18.9v60.4H670c20.8,0,31.7-9.9,31.7-28.6C701.7,701,691.5,690,672.2,690z M670,744.8h-11.2v-49.2h13.3
				c16.2,0,24,8.5,24,26.1C696.2,737.2,687.6,744.8,670,744.8z"/>
		</g>
		<g>
			<rect x="752.9" y="690.8" width="5.6" height="59.2"/>
		</g>
		<g>
			<path d="M836.7,751.4c-16.8,0-27.6-12.2-27.6-31.1c0-15.5,8.5-31.1,27.6-31.1c20.1,0,27.2,16.8,27.2,31.2
				C863.9,734.7,856.8,751.4,836.7,751.4z M836.7,694.8c-16.3,0-22,13.8-22,25.5c0,6,1.6,25.5,22,25.5c16,0,21.6-13.1,21.6-25.4
				C858.4,708,852.7,694.8,836.7,694.8z"/>
		</g>
		<g>
			<path d="M418.1,734.9c-0.1,4.7-2.3,9.2-6.1,12.2c-3.8,3.1-9,4.6-14.9,4.6c-2.6,0-5.4-0.3-8.3-0.9c-9.8-2.1-15.1-7.9-17.7-13.4
				c1.1-1,2.9-2.7,4.4-4c1.5,4.3,5.2,10,14.5,12c7.8,1.6,14.4,0.7,18.6-2.6c2.5-2,4-4.9,4.1-8c0.1-5.3-4.2-8.4-14.7-10.6
				c-0.6-0.1-1.2-0.3-1.8-0.4c-9.1-1.9-20.5-4.3-22.5-13.6c-1.1-5.1,0-10.2,3-14c2.6-3.3,7.9-7.1,18.3-7.1c12.1,0,19.5,6.8,22.7,13
				l-4.3,4.1c-1.5-4-6.4-11.4-18.3-11.4c-6.5,0-11.3,1.7-14,5.1c-2,2.5-2.7,5.9-1.9,9.3c1.3,5.8,10.3,7.7,18.2,9.3
				c0.6,0.1,1.3,0.3,1.9,0.4C404.7,720,418.2,722.9,418.1,734.9z"/>
		</g>
		<g>
			<path d="M956.4,734.9c-0.1,4.7-2.3,9.2-6.1,12.2c-3.8,3.1-9,4.6-14.9,4.6c-2.6,0-5.4-0.3-8.3-0.9c-9.8-2.1-15.1-7.9-17.7-13.4
				c1.1-1,2.9-2.7,4.4-4c1.5,4.3,5.2,10,14.5,12c7.8,1.6,14.4,0.7,18.6-2.6c2.5-2,4-4.9,4.1-8c0.1-5.3-4.2-8.4-14.7-10.6
				c-0.6-0.1-1.2-0.3-1.8-0.4c-9.1-1.9-20.5-4.3-22.5-13.6c-1.1-5.1,0-10.2,3-14c2.6-3.3,7.9-7.1,18.3-7.1c12.1,0,19.5,6.8,22.7,13
				l-4.3,4.1c-1.5-4-6.4-11.4-18.3-11.4c-6.5,0-11.3,1.7-14,5.1c-2,2.5-2.7,5.9-1.9,9.3c1.3,5.8,10.3,7.7,18.2,9.3
				c0.6,0.1,1.3,0.3,1.9,0.4C943.1,720,956.6,722.9,956.4,734.9z"/>
		</g>
	</g>
</g>
<path d="M254,336.5c25.3,0,49.8,5.2,72.6,15.5c20,9,37.9,21.5,53.3,37.2l-51,79.2c-0.1-5.8-1.8-12-6-18.8
	c-6.9-11.1-18.7-17.8-31.7-17.8c-9,0-17.3,3.3-22.9,8.9c-1.8,1.9-3.5,3.8-5.1,5.6c-4.4-11-12.3-22.7-27.3-27.2
	c-4.3-1.3-8.8-2-13.4-2c-20.6,0-38.3,12.6-43.2,30.7c-3,11.3-1.5,21.4,0.9,28.8c-6.3,1.7-14.2,4.9-21.4,10.5
	c-10.2,7.9-16.6,23.6-16,39.1c0.6,15.1,7.7,27.9,20.1,36.1c8.6,5.7,18,8.6,27.8,8.6c6,0,11.4-1.1,15.9-2.5c0.7,9.3,3.8,18.5,12.7,28
	c8.3,9,19.3,13.9,31,13.9c9.3,0,18.5-2.9,27.4-8.8c9.8-6.4,15.7-18.1,17.6-34.8c0.3-2.5,0.5-4.9,0.5-7.1c4.7,1.4,10.4,2.4,16.4,2.4
	c2.1,0,4.1-0.1,6.1-0.4l3,6l42.4,84.5c-31.1,24.7-69.8,38.2-109.8,38.2c-47.3,0-91.7-18.4-125.1-51.8
	c-33.4-33.4-51.8-77.8-51.8-125.1c0-47.2,18.4-91.7,51.8-125.1C162.3,354.9,206.7,336.5,254,336.5 M254,327.5
	c-102.7,0-185.9,83.2-185.9,185.9S151.3,699.3,254,699.3c46.2,0,88.5-16.9,121-44.8l-45.6-90.9c0,0,26.5-9.3,27.3-39.4
	s-27.3-40-27.3-40l61.9-96.1C357.3,350.9,308.4,327.5,254,327.5L254,327.5z M190.6,561.9c-7,0-14.8-1.8-22.9-7.1
	c-24.7-16.4-16.9-50.2-3.5-60.5c13.4-10.4,28.9-10.8,28.9-10.8s-10.2-14.7-5.2-33.3c4-15.1,19.2-24,34.5-24c3.6,0,7.3,0.5,10.8,1.6
	c18.1,5.5,23.3,24.2,26.3,39c0,0,6-10.4,15.2-19.7c3.9-4,10-6.2,16.5-6.2c8.8,0,18.2,4.1,24,13.5c10.1,16.4,1.7,28-5.7,38.7
	c0,0,23.4,0.5,30.9,17.8c7.5,17.3-1.6,36.9-19.1,41.2c-3.1,0.8-6.2,1.1-9.1,1.1c-14,0-25.7-6.9-25.7-6.9s4.2,36.2-13.8,47.9
	c-7.7,5-15.4,7.3-22.5,7.3c-9.5,0-18-4-24.4-11c-11.4-12.3-11.1-23.6-10-36.2C215.8,554.1,205.2,561.9,190.6,561.9L190.6,561.9z"/>
</svg>
